<svg xmlns="http://www.w3.org/2000/svg" viewBox="0 -0.5 19 29" shape-rendering="crispEdges">
<metadata>Made with Pixels to Svg https://codepen.io/shshaw/pen/XbxvNj</metadata>
<path stroke="#c07915" d="M7 0h5M5 1h2M12 1h2M3 2h2M14 2h2M2 3h1M16 3h1M2 4h1M16 4h1M1 5h1M17 5h1M1 6h1M17 6h1M0 7h1M18 7h1M0 8h1M18 8h1M0 9h1M18 9h1M0 10h1M18 10h1M0 11h1M18 11h1M1 12h1M17 12h1M1 13h1M17 13h1M2 14h1M16 14h1M2 15h1M16 15h1M3 16h2M14 16h2M5 17h2M12 17h2M7 18h5M6 19h2M11 19h2M5 20h1M13 20h1M5 21h1M13 21h1M5 22h1M7 22h1M11 22h1M13 22h1M5 23h1M7 23h1M11 23h1M13 23h1M5 24h1M7 24h1M11 24h1M13 24h1M6 25h2M11 25h2M7 26h1M9 26h1M11 26h1M7 27h1M9 27h1M11 27h1M7 28h5" />
<path stroke="#d89d4b" d="M7 1h5M12 2h2M14 3h2M15 4h1M16 5h1M16 6h1M17 7h1M17 8h1M17 9h1M17 10h1M17 11h1M10 19h1M11 20h2M12 21h1M12 22h1M12 23h1M12 24h1" />
<path stroke="#c48b3b" d="M5 2h7M3 3h11M3 4h12M2 5h14M2 6h14M2 7h15M2 8h15M2 9h15M2 10h15M2 11h15M3 12h14M3 13h14M4 14h12M5 15h11M7 16h7M8 19h2M6 20h5M6 21h6M6 22h1M8 22h3M6 23h1M8 23h3M6 24h1M8 24h3M8 25h3M8 26h1M10 26h1M8 27h1M10 27h1" />
<path stroke="#bc7f2c" d="M1 7h1M1 8h1M1 9h1M1 10h1M1 11h1M2 12h1M2 13h1M3 14h1M3 15h2M5 16h2M7 17h5" />
</svg>